<?xml version="1.0" encoding="utf-8"?>
<!-- Generator: Adobe Illustrator 25.4.1, SVG Export Plug-In . SVG Version: 6.00 Build 0)  -->
<svg version="1.1" id="Layer_1" xmlns="http://www.w3.org/2000/svg" xmlns:xlink="http://www.w3.org/1999/xlink" x="0px" y="0px"
	 viewBox="0 0 24 24" style="enable-background:new 0 0 24 24;" xml:space="preserve">
<style type="text/css">
	.st0{fill:none;}
</style>
<path class="st0" d="M0,0v24h24V0H0z M12,21.5L12,21.5L12,21.5L0.4,7C0.8,6.7,5.3,3,12,3c6.7,0,11.2,3.7,11.6,4L12,21.5z"/>
<path d="M8.6,9.9c0,1.9,1.5,3.4,3.4,3.4s3.4-1.5,3.4-3.4S13.9,6.5,12,6.5S8.6,8,8.6,9.9z M14,9.9c0,1.1-0.9,2-2,2s-2-0.9-2-2
	s0.9-2,2-2S14,8.8,14,9.9z"/>
<path d="M0.4,7L12,21.5l0,0l0,0L23.6,7C23.2,6.7,18.7,3,12,3C5.3,3,0.8,6.7,0.4,7z M19.5,9.9c-1.2,3-4.1,5.1-7.5,5.1
	s-6.3-2.1-7.5-5.1c1.2-3,4.1-5.1,7.5-5.1S18.3,6.9,19.5,9.9z"/>
<circle class="st0" cx="12" cy="9.9" r="2"/>
<path class="st0" d="M4.5,9.9c1.2,3,4.1,5.1,7.5,5.1s6.3-2.1,7.5-5.1c-1.2-3-4.1-5.1-7.5-5.1S5.7,6.9,4.5,9.9z M15.4,9.9
	c0,1.9-1.5,3.4-3.4,3.4s-3.4-1.5-3.4-3.4s1.5-3.4,3.4-3.4S15.4,8,15.4,9.9z"/>
</svg>
